PathFileType	4	(X/Y/Z)	 s01c0103.trc
DataRate	CameraRate	NumFrames	NumMarkers	Units	OrigDataRate	OrigDataStartFrame	OrigNumFrames
200	200	4	48	mm	200	251	2000
Frame#	Time	racr			lacr			c7			jug			rlel			rdr			llel			ldr			s2			lic			ric			lasi			rasi			rpsi			lpsi			rgt			lgt			rth1			rth2			rth3			rth4			rlfc			rsh1			rsh2			rsh3			rsh4			rlmal			rmmal			rcal			rtoe			rmt5			lth1			lth2			lth4			lth3			llfc			lsh1			lsh2			lsh3			lsh4			llmal			lmmal			lcal			ltoe			lmt5			SBIKE			LBIKE			RBIKE			
		X1	Y1	Z1	X2	Y2	Z2	X3	Y3	Z3	X4	Y4	Z4	X5	Y5	Z5	X6	Y6	Z6	X7	Y7	Z7	X8	Y8	Z8	X9	Y9	Z9	X10	Y10	Z10	X11	Y11	Z11	X12	Y12	Z12	X13	Y13	Z13	X14	Y14	Z14	X15	Y15	Z15	X16	Y16	Z16	X17	Y17	Z17	X18	Y18	Z18	X19	Y19	Z19	X20	Y20	Z20	X21	Y21	Z21	X22	Y22	Z22	X23	Y23	Z23	X24	Y24	Z24	X25	Y25	Z25	X26	Y26	Z26	X27	Y27	Z27	X28	Y28	Z28	X29	Y29	Z29	X30	Y30	Z30	X31	Y31	Z31	X32	Y32	Z32	X33	Y33	Z33	X34	Y34	Z34	X35	Y35	Z35	X36	Y36	Z36	X37	Y37	Z37	X38	Y38	Z38	X39	Y39	Z39	X40	Y40	Z40	X41	Y41	Z41	X42	Y42	Z42	X43	Y43	Z43	X44	Y44	Z44	X45	Y45	Z45	X46	Y46	Z46	X47	Y47	Z47	X48	Y48	Z48	
251	1.2550	529.429796	1326.947292	-162.956590	487.398941	1332.302321	-459.819560	453.834397	1410.001638	-305.286499	471.640473	1247.157462	-292.805773	590.928592	1073.793704	-32.843129	735.608233	854.435433	-61.713281	527.622254	1051.397676	-549.669865	719.789476	900.005577	-413.382947	-79.155985	1215.009253	-254.010923	121.204840	1210.006974	-456.159124	87.203009	1209.781019	-98.970114	118.886833	1157.271140	-434.284210	107.542249	1158.624626	-124.312679	-48.380548	1249.600229	-196.925992	-51.120461	1248.138023	-303.757643	37.972030	1103.125664	-60.027839	24.669164	1079.126339	-440.421872	138.862777	1019.077586	-58.923640	208.673028	972.859364	-66.293485	277.716902	916.122278	-81.731051	237.808454	1014.605919	-88.580413	322.261623	812.255953	-104.824014	240.469531	729.236671	-66.264206	184.450093	665.408450	-67.533163	118.064967	605.879146	-76.369205	215.046715	636.973111	-110.985895	19.695774	520.495127	-91.148165	61.317910	514.625891	-171.814328	-35.017249	513.995675	-147.130101	183.964981	349.729140	-142.920638	82.908972	381.333117	-72.520588	89.986760	964.921019	-443.443285	161.976456	909.822029	-437.678193	196.727034	951.426246	-430.399706	223.128663	851.468787	-413.517549	301.992057	753.074075	-394.321964	269.658102	648.302533	-434.569247	269.678134	561.995774	-431.974111	266.615495	476.186784	-423.502544	321.824520	564.350889	-399.108102	260.270448	344.661703	-412.370878	418.307176	270.982072	-336.390603	208.431344	355.783662	-459.571465	500.318544	314.217705	-373.439158	399.461919	279.228822	-442.774624	-223.544408	892.556027	-253.197138	-13.479133	85.342420	-456.393661	-21.419012	80.568620	-55.933340	
252	1.2600	529.961350	1327.077897	-163.348381	488.085844	1332.441839	-460.428359	454.514196	1410.157695	-305.927359	471.634064	1247.087239	-293.448103	591.179955	1073.926677	-33.018015	735.740797	854.416287	-61.730147	527.950251	1051.273453	-549.889903	719.956335	899.571518	-415.294425	-77.961147	1213.251049	-255.339367	122.937442	1208.217641	-456.964892	87.782489	1209.298086	-99.502831	120.870882	1155.686081	-434.711096	108.466657	1158.408073	-124.639213	-47.633768	1248.218890	-198.080207	-49.815533	1246.515230	-304.870271	38.889351	1102.798387	-60.367853	27.393271	1077.155804	-440.777853	140.564969	1019.582086	-58.903714	210.916900	974.094320	-65.970837	280.708671	918.172676	-81.078396	239.676807	1016.028726	-88.286658	326.068889	814.555682	-104.075357	243.931981	731.954582	-65.755480	187.527932	668.470331	-67.189281	120.796086	609.334579	-76.188979	218.010721	639.859796	-110.595967	21.909363	524.797961	-91.048395	63.604319	518.745235	-171.703073	-32.902642	518.611816	-147.107332	185.245646	353.334930	-142.900626	84.437831	385.416050	-72.515910	92.179609	962.886774	-443.373023	163.926278	907.632789	-437.638087	198.760041	949.180767	-430.229558	224.927862	849.271628	-413.323156	303.030470	750.331665	-394.055014	269.921788	645.872533	-435.024085	270.643223	559.271283	-431.839871	267.017861	473.741811	-423.487639	322.466456	561.650403	-398.941480	260.346858	342.092258	-411.953279	415.205912	270.733490	-336.507306	208.367666	354.230302	-459.574838	499.917284	309.143335	-373.297095	399.138136	275.540219	-442.712045	-223.529164	892.551777	-253.175392	-13.459964	85.327847	-456.378632	-21.403878	80.572423	-55.935284	
253	1.2650	530.474989	1327.188358	-163.551162	488.825624	1332.593793	-461.048461	455.205352	1410.323638	-306.567147	471.591339	1247.000570	-294.118615	591.807345	1074.100318	-33.064570	736.087455	854.510407	-62.343549	528.433375	1051.170027	-550.049310	720.131588	899.118651	-417.150503	-76.662251	1211.415879	-256.706411	124.701285	1206.444494	-457.791105	88.455482	1208.763583	-99.950027	122.907165	1154.039493	-435.139519	109.513257	1158.152228	-124.883093	-46.753440	1246.796698	-199.290794	-48.483916	1244.820182	-306.005155	39.760674	1102.235480	-60.764064	30.172577	1075.094480	-441.111301	142.328638	1019.741504	-59.038629	213.192982	975.270535	-65.650695	283.652018	920.131344	-80.474482	241.553791	1017.581509	-87.929492	329.963331	816.924964	-103.346544	247.373333	734.696858	-65.340353	190.691309	671.547436	-66.855609	123.544003	612.848762	-76.011705	220.995457	642.830860	-110.254134	24.211789	529.019721	-90.945473	66.222734	522.917761	-171.507704	-30.685181	523.161156	-147.101454	186.706211	356.818767	-142.884768	86.024447	389.390745	-72.498933	94.450421	960.817893	-443.314879	165.949471	905.422325	-437.603479	201.018358	946.932157	-429.977873	226.943931	846.931581	-413.162713	304.116400	747.553380	-393.840092	270.774662	643.347490	-435.070475	271.255870	556.794213	-431.809807	267.340544	471.227400	-423.509666	323.081233	558.915467	-398.796107	260.386681	339.485642	-411.434905	412.037190	270.507342	-336.624598	208.306975	351.926065	-458.384002	499.246900	303.921002	-373.059260	398.507476	271.723495	-442.628448	-223.487622	892.575975	-253.190544	-13.424447	85.312951	-456.410295	-21.410009	80.576149	-55.944026	
254	1.2700	531.007373	1327.319649	-163.835293	489.621601	1332.753555	-461.675047	455.908594	1410.499177	-307.201785	471.511368	1246.896980	-294.817985	592.050031	1074.155546	-33.292177	736.139514	854.460422	-62.442864	528.668664	1051.019641	-550.218010	720.315326	898.646588	-418.949088	-75.272845	1209.536838	-258.040536	126.483525	1204.489562	-458.543175	89.164505	1208.106901	-100.435604	124.981119	1152.331949	-435.555127	110.508191	1157.874061	-125.142933	-45.866024	1245.285343	-200.477231	-47.126263	1243.057324	-307.162375	40.764073	1101.516611	-61.246847	32.989435	1072.957170	-441.426032	144.135608	1020.121376	-58.972863	215.510711	976.469759	-65.308224	286.630461	922.056280	-79.900369	243.495977	1019.127520	-87.429709	333.859159	819.289518	-102.657561	250.943822	737.540298	-64.878827	193.866365	674.713414	-66.542734	126.356696	616.466407	-75.793177	224.063516	645.766942	-109.914456	26.560921	533.365765	-90.827874	69.187300	527.126836	-171.226958	-28.369561	527.716733	-147.010287	188.269755	360.432843	-142.885434	87.716775	393.445787	-72.357590	96.781094	958.721380	-443.271584	168.019616	903.191419	-437.577052	203.041952	944.719490	-429.861641	228.765729	844.613003	-413.169307	305.241062	744.749134	-393.674862	271.758214	640.639213	-435.061069	271.790116	554.250660	-431.828013	267.590548	468.659140	-423.563352	323.600009	556.299657	-398.690468	260.372753	336.862371	-410.861250	408.800569	270.303815	-336.742481	208.239956	348.953979	-456.124947	498.335581	298.572094	-372.741514	397.600606	267.803124	-442.526887	-223.455895	892.641772	-253.182917	-13.439739	85.330473	-456.387768	-21.395670	80.567149	-55.938532	
